<svg width="227" height="88" viewBox="0 0 227 88" fill="none" xmlns="http://www.w3.org/2000/svg">
<g filter="url(#filter0_d_67_12)">
<path d="M106.935 50.0547C106.935 50.6039 106.378 51.0492 105.69 51.0492C105.002 51.0492 104.445 50.6039 104.445 50.0547C104.445 49.5055 105.002 49.0602 105.69 49.0602C106.378 49.0602 106.935 49.5055 106.935 50.0547Z" fill="white"/>
</g>
<g filter="url(#filter1_d_67_12)">
<path d="M70.091 65.0163C56.5243 68.3823 55.0791 52.2675 57.0931 45.0665C57.4014 44.1838 57.3722 43.2476 57.0092 42.3782C55.8623 40.1442 52.6548 39.4591 50.3517 38.1634C42.1744 32.9507 28.7196 32.206 22.0714 39.474C21.6067 39.9859 21.2039 40.532 20.8686 41.1048C20.1733 42.1754 19.9877 43.411 20.3465 44.5825C20.5503 45.1359 20.9601 45.6268 21.5213 45.9899C37.3724 51.493 81.6716 23.9773 94.194 15.0636C96.6253 13.2306 98.9111 11.2782 101.038 9.2179C102.084 8.19691 103.058 7.13039 103.956 6.02325C104.846 4.95303 105.575 3.80337 106.129 2.59774C106.26 2.31222 106.36 2.01823 106.427 1.71903C106.497 1.47389 106.497 1.21949 106.427 0.974355C106.427 0.937121 106.427 0.929674 106.427 0.974355C106.427 1.01159 106.427 0.974355 106.474 0.974355C106.363 0.980205 106.253 0.997731 106.148 1.02648C105.786 1.12504 105.439 1.25488 105.113 1.41371C103.689 2.1242 102.337 2.92086 101.066 3.79667C98.4645 5.57644 95.9843 7.44557 93.5134 9.29237C91.0424 11.1392 88.6461 13.0157 86.2591 14.9519C71.9652 26.4646 58.2027 38.3793 44.5521 50.3611C35.4889 58.3589 26.4662 66.394 17.4839 74.4662L17.3534 74.5779H17.1669C16.2998 74.7939 15.4606 74.995 14.5282 75.1588L14.1459 75.2184H13.8848C13.7858 75.2291 13.6854 75.2291 13.5864 75.2184C13.491 75.1943 13.4028 75.1547 13.3274 75.1022C13.252 75.0497 13.191 74.9853 13.1482 74.9131C13.102 74.8198 13.102 74.7159 13.1482 74.6226C13.1614 74.5685 13.1834 74.5159 13.2135 74.4662L13.2881 74.3918L13.372 74.3322L13.4839 74.2577L13.661 74.1684L13.9874 74.0269C14.3976 73.8556 14.8079 73.6992 15.2088 73.5577L15.5165 73.446L15.7869 73.3418C15.9429 73.2736 16.0925 73.1964 16.2345 73.1109C16.5608 72.9173 16.8779 72.7088 17.1669 72.4854C17.801 72.0461 18.4164 71.5769 19.0318 71.0929C21.4374 69.1716 23.6938 67.1387 26.0062 65.1355C39.5729 52.8707 52.8133 40.3527 65.8951 27.805C53.2329 40.5836 40.6266 53.459 27.0972 65.6716C24.85 67.7121 22.519 69.7376 20.0667 71.6886C19.4513 72.1801 18.8266 72.6567 18.1553 73.1258C17.8199 73.367 17.4682 73.5932 17.1016 73.8035C16.8989 73.9289 16.6837 74.0409 16.4583 74.1386L16.1319 74.2652L15.8336 74.3694C15.4326 74.5109 15.041 74.6599 14.6774 74.8162L14.4163 74.9279L14.323 74.9726V74.9205C14.3513 74.8814 14.3703 74.8385 14.379 74.7939C14.4114 74.709 14.4114 74.6182 14.379 74.5333C14.3299 74.4421 14.2447 74.3662 14.1366 74.3173C14.0949 74.2925 14.0473 74.2748 13.9967 74.2652C13.9537 74.2577 13.9092 74.2577 13.8662 74.2652H13.9407L14.2205 74.2205C15.0317 74.079 15.8895 73.8705 16.7194 73.6694L16.421 73.8333C25.3722 65.756 34.4011 57.726 43.5077 49.7431C57.1957 37.7761 70.9954 25.839 85.2521 14.2891C87.6516 12.3629 90.0945 10.459 92.5809 8.57748C95.0519 6.7009 97.5228 4.85411 100.189 3.08178C101.513 2.1679 102.922 1.33639 104.404 0.594571C104.831 0.391946 105.284 0.227142 105.756 0.103086C106.055 0.0179966 106.373 -0.0150135 106.688 0.00627822L107.015 0.0807456C107.132 0.12378 107.242 0.178855 107.341 0.244574C107.489 0.361341 107.601 0.504154 107.667 0.661592C107.807 1.05179 107.826 1.46312 107.723 1.86052C107.648 2.20922 107.539 2.55278 107.397 2.88817C106.82 4.16686 106.049 5.38466 105.103 6.51473C104.183 7.65948 103.18 8.76094 102.101 9.81364C99.9321 11.9147 97.5995 13.9044 95.1171 15.771C79.6949 26.4273 43.6569 48.9612 23.2463 47.7176C22.2954 47.5448 21.404 47.2066 20.6355 46.7271C19.8868 46.2528 19.3291 45.6132 19.0318 44.8878C18.7736 44.1949 18.7131 43.4646 18.8546 42.7506C18.9805 42.0566 19.2351 41.3815 19.6099 40.7474C22.6495 35.6985 30.2208 32.6305 37.5682 33.1145C42.5177 33.4796 47.2277 34.9853 51.1256 37.4485C53.9881 38.9825 58.4731 40.3751 58.3146 43.7261C56.0861 50.9941 55.7131 67.995 70.091 65.0163Z" fill="white"/>
</g>
<g filter="url(#filter2_d_67_12)">
<path d="M77.1203 56.5941C71.5258 50.942 58.4719 66.2748 69.5117 63.0057C73.2414 61.8961 74.0153 58.4111 76.9245 56.4675C77.4 56.1547 77.372 56.9068 77.3161 56.6685C65.4278 73.5652 90.5938 53.6154 93.9598 49.1473C102.725 40.107 109.363 30.0539 116.823 20.4029C117.363 20.5667 115.685 19.9412 117.942 20.9167C105.774 34.9985 93.4096 49.3111 81.857 63.8472C81.6308 64.1317 81.4343 64.4306 81.2696 64.7408C81.4467 64.51 80.6355 64.1525 80.5236 64.2791C90.715 56.3036 105.307 46.5931 93.1299 65.5302C93.1299 65.3738 92.6078 65.2546 92.5052 65.3068C96.6918 62.2759 101.046 58.4706 103.293 54.4568C103.368 54.5387 103.474 54.5979 103.596 54.625C103.718 54.652 103.848 54.6453 103.965 54.6058C101.373 57.6441 99.0042 61.427 98.7804 65.1206C98.742 65.096 98.6975 65.0782 98.6498 65.0685C103.741 62.4919 106.109 57.5175 111.126 54.7994C119.014 52.1409 109.018 62.9312 107.657 64.4802C105.568 63.3408 107.004 64.2195 106.594 63.9217C113.317 56.8175 126.846 46.5335 114.911 63.378C114.501 63.5046 115.844 63.2812 113.979 62.7749C113.811 62.8493 113.904 62.7749 113.886 62.7749C120.646 56.0728 133.923 46.392 123.098 62.6185C122.933 62.8381 122.796 63.07 122.688 63.311C122.688 63.11 122.203 62.9238 122.082 62.9983C126.184 60.5408 128.786 56.8547 131.853 53.66C135.229 52.9154 129.392 61.561 130.921 63.244C135.182 61.3004 137.765 57.5026 140.842 54.5239L141.578 54.4717L141.979 54.9483C138.473 61.7621 137.271 66.7291 146.11 58.6196C148.441 56.4973 150.632 54.2707 152.739 52.0218C154.847 49.7729 156.889 47.4569 158.865 45.1186C166.717 35.8005 173.877 26.1231 180.311 16.1359L180.908 15.2051L181.206 14.7434L181.262 14.6466C181.318 14.721 181.15 14.4753 181.346 14.9966C182.838 15.4359 182.101 14.9966 182.325 15.1157L182.241 15.1976C181.719 15.704 181.206 16.2997 180.703 16.8731C179.705 18.0199 178.726 19.1816 177.775 20.3731C175.867 22.7362 174.002 25.1216 172.18 27.5294C168.581 32.34 165.159 37.2102 162.036 42.2293C158.868 47.1698 156.135 52.2807 153.858 57.5249C152.744 60.1343 151.896 62.8115 151.322 65.5302C151.047 66.8644 150.907 68.2141 150.903 69.5663C150.875 70.9074 151.108 72.2438 151.593 73.528C152.04 74.8082 152.975 75.9455 154.269 76.7822C155.605 77.6529 157.22 78.2075 158.931 78.3832C160.718 78.5966 162.533 78.6241 164.329 78.4652L164.936 78.3981H165.01C164.945 78.3981 164.963 78.3981 164.852 78.5173C164.794 78.5771 164.761 78.6502 164.758 78.7258C164.752 78.8014 164.775 78.8767 164.824 78.9417C164.852 78.9861 164.89 79.0264 164.936 79.0609C164.755 79.0043 164.567 78.9619 164.376 78.9343L163.723 78.8151C162.791 78.6737 161.924 78.5545 161.001 78.4503C157.318 78.0332 153.597 77.7056 149.877 77.4598C146.157 77.2141 142.418 76.9535 138.688 76.7152C108.802 75.0586 78.829 74.6186 48.8866 75.3971C33.9679 75.8067 18.984 76.5662 4.13054 77.8471L4 76.8567C22.1635 75.7843 40.3239 74.774 58.4812 73.8258C76.6448 72.8875 94.8456 71.9269 113 71.2269C131.154 70.5269 149.364 69.8493 167.584 69.4099C176.684 69.1865 185.784 69.0227 194.894 68.9929C199.444 68.9929 203.998 69.0301 208.554 69.1046C209.692 69.1046 210.82 69.1716 211.967 69.2014C213.114 69.2312 214.242 69.261 215.37 69.3354L218.783 69.5365L222.167 69.8642L218.773 69.5737L215.37 69.4174C214.232 69.3429 213.095 69.3429 211.957 69.3057C210.82 69.2684 209.682 69.2386 208.545 69.2386C203.995 69.194 199.444 69.194 194.894 69.2386C185.794 69.3479 176.696 69.5564 167.602 69.8642C149.42 70.445 131.238 71.2344 113.074 72.0982C94.9108 72.962 76.71 73.8333 58.5745 74.8013C40.4389 75.7694 22.2754 76.7747 4.13054 77.8471L4 76.8567C18.9187 75.5684 33.8934 74.8088 48.896 74.3992C78.8881 73.6207 108.91 74.0606 138.846 75.7173C142.576 75.9407 146.306 76.1889 150.035 76.462C153.765 76.7375 157.495 77.0428 161.224 77.445C162.157 77.5566 163.089 77.6758 164.022 77.8247L164.73 77.9513C164.997 78.0026 165.259 78.0698 165.514 78.1524L165.635 78.1971L165.793 78.279C165.888 78.3373 165.97 78.4078 166.036 78.4875C166.092 78.5747 166.118 78.6725 166.11 78.7705C166.102 78.8672 166.06 78.9601 165.989 79.0386C165.912 79.1235 165.814 79.1946 165.7 79.2471L165.523 79.2992L165.271 79.3588C165.013 79.4031 164.751 79.433 164.488 79.4481C162.558 79.6207 160.608 79.5882 158.688 79.3513C156.723 79.1534 154.867 78.5157 153.336 77.512C151.861 76.5523 150.792 75.2518 150.278 73.7886C149.748 72.429 149.484 71.0124 149.495 69.5886C149.495 68.186 149.644 66.7859 149.942 65.4036C150.531 62.6482 151.401 59.936 152.544 57.2941C154.844 52.0058 157.598 46.8503 160.786 41.8644C163.928 36.8528 167.36 31.9379 170.978 27.105C172.786 24.6873 174.651 22.2944 176.572 19.9263C177.529 18.7398 178.515 17.5632 179.528 16.3965C180.041 15.8083 180.535 15.2349 181.132 14.6466L181.271 14.5274L181.365 14.4529C181.626 14.5572 180.917 14.0583 182.484 14.5125C182.698 15.0859 182.484 14.8774 182.484 14.9891V15.0859L182.4 15.22L182.101 15.6966L181.495 16.6274C175.034 26.6368 167.842 36.3342 159.956 45.6697C157.967 48.008 155.916 50.3189 153.802 52.6026C151.686 54.8366 149.476 57.1228 147.098 59.3047C137.494 68.3301 135.807 63.0727 140.646 54.6728L141.849 55.1271C134.455 63.8249 125.186 70.3035 131.592 54.1888C131.518 54.6058 132.748 54.6281 132.581 54.4941C132.114 55.5664 119.592 68.7695 121.792 62.2238C123.476 59.7529 124.937 57.1898 126.166 54.5537C121.503 56.7877 118.473 60.727 114.51 63.6536C112.543 63.1695 113.997 62.8568 113.578 62.9089C115.413 60.3692 117.054 57.7432 118.492 55.0451C115.098 57.3313 110.799 61.3749 107.536 64.5472C107.088 64.2717 108.468 65.2397 106.352 64.0631C108.683 61.2632 111.797 58.1579 112.879 55.1271C108.067 57.3611 104.99 62.4472 100.449 65.4334C94.9481 68.0397 98.454 60.5855 99.517 58.776C100.188 57.7185 103.247 51.4558 104.524 54.5834C102.277 59.0515 97.6522 62.8642 93.2418 66.1259C88.6357 67.377 97.9039 57.51 96.2628 55.5292C93.6334 54.5015 77.9222 69.6035 80.2066 63.9514C91.8991 49.1175 104.347 34.656 116.925 20.2912C119.238 21.2518 117.475 20.7231 117.998 20.9167C110.258 30.5007 103.545 40.5389 94.6125 49.5346C90.9387 54.5388 64.3741 74.429 76.8499 56.5121C76.8499 56.259 76.8499 56.81 77.2602 56.6536C75.7963 58.9174 67.9919 67.6897 64.6072 62.6706C62.3228 59.3196 73.1948 51.4186 77.1576 56.5643L77.1203 56.5941Z" fill="white"/>
</g>
<defs>
<filter id="filter0_d_67_12" x="100.445" y="49.0602" width="10.4905" height="9.98895" filterUnits="userSpaceOnUse" color-interpolation-filters="sRGB">
<feFlood flood-opacity="0" result="BackgroundImageFix"/>
<feColorMatrix in="SourceAlpha" type="matrix" values="0 0 0 0 0 0 0 0 0 0 0 0 0 0 0 0 0 0 127 0" result="hardAlpha"/>
<feOffset dy="4"/>
<feGaussianBlur stdDeviation="2"/>
<feComposite in2="hardAlpha" operator="out"/>
<feColorMatrix type="matrix" values="0 0 0 0 0 0 0 0 0 0 0 0 0 0 0 0 0 0 0.75 0"/>
<feBlend mode="normal" in2="BackgroundImageFix" result="effect1_dropShadow_67_12"/>
<feBlend mode="normal" in="SourceGraphic" in2="effect1_dropShadow_67_12" result="shape"/>
</filter>
<filter id="filter1_d_67_12" x="9.11353" y="0" width="102.675" height="83.2264" filterUnits="userSpaceOnUse" color-interpolation-filters="sRGB">
<feFlood flood-opacity="0" result="BackgroundImageFix"/>
<feColorMatrix in="SourceAlpha" type="matrix" values="0 0 0 0 0 0 0 0 0 0 0 0 0 0 0 0 0 0 127 0" result="hardAlpha"/>
<feOffset dy="4"/>
<feGaussianBlur stdDeviation="2"/>
<feComposite in2="hardAlpha" operator="out"/>
<feColorMatrix type="matrix" values="0 0 0 0 0 0 0 0 0 0 0 0 0 0 0 0 0 0 0.75 0"/>
<feBlend mode="normal" in2="BackgroundImageFix" result="effect1_dropShadow_67_12"/>
<feBlend mode="normal" in="SourceGraphic" in2="effect1_dropShadow_67_12" result="shape"/>
</filter>
<filter id="filter2_d_67_12" x="0" y="14.3182" width="226.167" height="73.2389" filterUnits="userSpaceOnUse" color-interpolation-filters="sRGB">
<feFlood flood-opacity="0" result="BackgroundImageFix"/>
<feColorMatrix in="SourceAlpha" type="matrix" values="0 0 0 0 0 0 0 0 0 0 0 0 0 0 0 0 0 0 127 0" result="hardAlpha"/>
<feOffset dy="4"/>
<feGaussianBlur stdDeviation="2"/>
<feComposite in2="hardAlpha" operator="out"/>
<feColorMatrix type="matrix" values="0 0 0 0 0 0 0 0 0 0 0 0 0 0 0 0 0 0 0.75 0"/>
<feBlend mode="normal" in2="BackgroundImageFix" result="effect1_dropShadow_67_12"/>
<feBlend mode="normal" in="SourceGraphic" in2="effect1_dropShadow_67_12" result="shape"/>
</filter>
</defs>
</svg>
